<svg width="16" height="16" viewBox="0 0 16 16" fill="none" xmlns="http://www.w3.org/2000/svg">
<path d="M9.50003 3.24999C9.50015 2.83752 9.61366 2.43303 9.82813 2.08071C10.0426 1.72839 10.3498 1.4418 10.7162 1.25227C11.0825 1.06274 11.4939 0.977563 11.9054 1.00604C12.3169 1.03452 12.7126 1.17556 13.0493 1.41375C13.3861 1.65194 13.6509 1.97811 13.8148 2.35662C13.9787 2.73513 14.0354 3.1514 13.9787 3.55996C13.922 3.96851 13.7541 4.35362 13.4933 4.67319C13.2325 4.99276 12.8889 5.2345 12.5 5.37199V5.99999C12.5 6.66303 12.2366 7.29892 11.7678 7.76776C11.299 8.2366 10.6631 8.49999 10 8.49999H6.00003C5.73481 8.49999 5.48046 8.60535 5.29292 8.79289C5.10539 8.98042 5.00003 9.23478 5.00003 9.49999V10.628C5.50072 10.8049 5.92273 11.1532 6.19148 11.6112C6.46023 12.0692 6.5584 12.6075 6.46864 13.1308C6.37888 13.6542 6.10698 14.129 5.70099 14.4713C5.29499 14.8136 4.78106 15.0014 4.25003 15.0014C3.719 15.0014 3.20506 14.8136 2.79907 14.4713C2.39308 14.129 2.12117 13.6542 2.03142 13.1308C1.94166 12.6075 2.03983 12.0692 2.30858 11.6112C2.57732 11.1532 2.99934 10.8049 3.50003 10.628V5.37199C2.99962 5.19507 2.57786 4.84694 2.3093 4.38913C2.04075 3.93132 1.94268 3.39331 2.03243 2.87019C2.12218 2.34707 2.39398 1.87252 2.79978 1.53041C3.20558 1.18831 3.71926 1.00067 4.25003 1.00067C4.78079 1.00067 5.29447 1.18831 5.70027 1.53041C6.10607 1.87252 6.37787 2.34707 6.46762 2.87019C6.55738 3.39331 6.45931 3.93132 6.19075 4.38913C5.92219 4.84694 5.50044 5.19507 5.00003 5.37199V7.20799C5.31543 7.07039 5.65591 6.99957 6.00003 6.99999H10C10.2652 6.99999 10.5196 6.89464 10.7071 6.7071C10.8947 6.51956 11 6.26521 11 5.99999V5.37199C10.5612 5.21686 10.1814 4.92947 9.91271 4.54943C9.64407 4.16939 9.49989 3.7154 9.50003 3.24999ZM3.50003 3.24999C3.50003 3.4489 3.57905 3.63967 3.7197 3.78032C3.86035 3.92097 4.05112 3.99999 4.25003 3.99999C4.44894 3.99999 4.63971 3.92097 4.78036 3.78032C4.92101 3.63967 5.00003 3.4489 5.00003 3.24999C5.00003 3.05108 4.92101 2.86031 4.78036 2.71966C4.63971 2.57901 4.44894 2.49999 4.25003 2.49999C4.05112 2.49999 3.86035 2.57901 3.7197 2.71966C3.57905 2.86031 3.50003 3.05108 3.50003 3.24999ZM11.75 2.49999C11.5511 2.49999 11.3604 2.57901 11.2197 2.71966C11.079 2.86031 11 3.05108 11 3.24999C11 3.4489 11.079 3.63967 11.2197 3.78032C11.3604 3.92097 11.5511 3.99999 11.75 3.99999C11.9489 3.99999 12.1397 3.92097 12.2804 3.78032C12.421 3.63967 12.5 3.4489 12.5 3.24999C12.5 3.05108 12.421 2.86031 12.2804 2.71966C12.1397 2.57901 11.9489 2.49999 11.75 2.49999ZM4.25003 12C4.05112 12 3.86035 12.079 3.7197 12.2197C3.57905 12.3603 3.50003 12.5511 3.50003 12.75C3.50003 12.9489 3.57905 13.1397 3.7197 13.2803C3.86035 13.421 4.05112 13.5 4.25003 13.5C4.44894 13.5 4.63971 13.421 4.78036 13.2803C4.92101 13.1397 5.00003 12.9489 5.00003 12.75C5.00003 12.5511 4.92101 12.3603 4.78036 12.2197C4.63971 12.079 4.44894 12 4.25003 12Z" fill="#D4D4D8"/>
</svg>
