<svg width="16" height="16" viewBox="0 0 16 16" fill="none" xmlns="http://www.w3.org/2000/svg">
<path d="M11.93 8.50001C11.7543 9.41354 11.2659 10.2373 10.5487 10.8298C9.83147 11.4222 8.93026 11.7463 8 11.7463C7.06974 11.7463 6.16853 11.4222 5.45131 10.8298C4.73409 10.2373 4.24567 9.41354 4.07 8.50001H0.75C0.551088 8.50001 0.360322 8.42099 0.21967 8.28034C0.0790176 8.13969 0 7.94892 0 7.75001C0 7.5511 0.0790176 7.36033 0.21967 7.21968C0.360322 7.07903 0.551088 7.00001 0.75 7.00001H4.07C4.24567 6.08648 4.73409 5.26269 5.45131 4.67024C6.16853 4.0778 7.06974 3.75372 8 3.75372C8.93026 3.75372 9.83147 4.0778 10.5487 4.67024C11.2659 5.26269 11.7543 6.08648 11.93 7.00001H15.25C15.4489 7.00001 15.6397 7.07903 15.7803 7.21968C15.921 7.36033 16 7.5511 16 7.75001C16 7.94892 15.921 8.13969 15.7803 8.28034C15.6397 8.42099 15.4489 8.50001 15.25 8.50001H11.93ZM10.5 7.75001C10.5 7.08697 10.2366 6.45108 9.76777 5.98224C9.29893 5.5134 8.66304 5.25001 8 5.25001C7.33696 5.25001 6.70107 5.5134 6.23223 5.98224C5.76339 6.45108 5.5 7.08697 5.5 7.75001C5.5 8.41305 5.76339 9.04893 6.23223 9.51778C6.70107 9.98662 7.33696 10.25 8 10.25C8.66304 10.25 9.29893 9.98662 9.76777 9.51778C10.2366 9.04893 10.5 8.41305 10.5 7.75001Z" fill="#D4D4D8"/>
</svg>
